<?xml version="1.0" standalone="no"?>
<!DOCTYPE svg PUBLIC "-//W3C//DTD SVG 20010904//EN"
 "http://www.w3.org/TR/2001/REC-SVG-20010904/DTD/svg10.dtd">
<svg version="1.0" xmlns="http://www.w3.org/2000/svg"
 width="640.000000pt" height="632.000000pt" viewBox="0 0 640.000000 632.000000"
 preserveAspectRatio="xMidYMid meet">

<g transform="translate(0.000000,632.000000) scale(0.100000,-0.100000)"
>
<path d="M3999 5816 c-68 -27 -122 -60 -168 -99 -34 -29 -37 -29 -110 -23
-240 20 -431 14 -661 -19 -212 -30 -555 -111 -627 -147 -12 -6 -33 -7 -50 -3
-62 16 -231 30 -280 23 -106 -15 -206 -86 -252 -177 -30 -57 -51 -154 -51
-233 0 -66 0 -67 -56 -135 -84 -101 -176 -246 -227 -356 -218 -463 -208 -1038
24 -1493 99 -196 239 -359 408 -478 76 -54 82 -61 76 -85 -4 -14 -9 -78 -12
-141 -7 -165 24 -269 119 -398 46 -63 97 -101 205 -157 l78 -41 -3 -64 c-13
-252 137 -560 342 -704 33 -23 77 -50 97 -59 160 -73 406 -63 570 24 l59 32
52 -41 c148 -112 324 -149 518 -108 98 21 174 60 235 121 49 49 115 157 115
189 0 28 37 36 171 36 182 0 335 23 499 77 290 94 488 275 600 548 45 109 70
263 70 433 0 412 -149 803 -417 1095 -49 52 -48 50 -23 177 33 165 37 296 15
500 -19 166 -27 213 -60 343 -93 363 -306 695 -612 956 -45 38 -71 72 -98 124
-85 165 -159 236 -308 296 -50 20 -175 13 -238 -13z m197 -99 c101 -30 174
-103 249 -248 32 -62 58 -97 92 -125 153 -125 342 -343 424 -489 18 -33 37
-61 41 -63 4 -2 8 -9 8 -16 0 -7 13 -40 30 -72 57 -114 114 -308 147 -506 26
-158 23 -463 -6 -583 -49 -205 -121 -357 -223 -478 -83 -96 -130 -141 -209
-200 l-76 -56 -74 20 c-41 11 -101 27 -134 35 -33 8 -76 19 -95 24 -32 8 -60
15 -172 39 -67 15 -100 21 -143 27 -22 2 -58 9 -80 14 -57 13 -194 30 -310 38
l-100 7 0 39 c0 43 -1 42 97 81 70 29 86 52 68 101 -15 38 -53 38 -150 -2
l-90 -36 -32 28 c-130 109 -404 136 -638 62 -93 -30 -153 -62 -202 -109 l-43
-41 -67 17 c-77 20 -115 14 -127 -18 -15 -41 2 -71 50 -86 104 -33 97 -26 97
-95 l0 -62 -54 -42 c-43 -34 -54 -48 -54 -71 0 -30 33 -61 66 -61 16 0 76 38
82 52 6 14 47 9 90 -12 22 -11 57 -20 77 -20 28 0 35 -4 35 -20 0 -11 -4 -28
-9 -38 -24 -46 -30 -73 -36 -145 -4 -47 -12 -80 -19 -83 -19 -7 -252 41 -341
71 -100 34 -238 103 -335 168 -126 84 -277 248 -349 377 -65 117 -100 201
-131 310 -7 25 -16 56 -20 70 -20 60 -60 335 -60 405 0 57 23 240 40 325 38
179 89 319 161 439 22 34 39 65 39 68 0 5 117 159 175 232 32 38 36 50 34 95
-4 113 21 217 64 271 43 53 102 75 208 75 49 0 100 -5 111 -11 29 -16 164 -17
180 -1 6 6 21 12 33 12 12 0 25 4 30 9 6 5 73 25 150 44 259 64 435 90 695
101 105 5 258 -3 385 -19 l50 -7 78 65 c55 46 95 70 140 85 74 24 98 26 153 9z
m1091 -2421 c104 -133 203 -306 203 -358 0 -35 -122 -273 -166 -322 -19 -21
-34 -42 -34 -46 0 -13 -162 -170 -176 -170 -8 0 -14 -4 -14 -9 0 -4 -19 -21
-42 -37 -24 -16 -61 -43 -82 -61 -22 -18 -45 -33 -51 -33 -6 0 -46 -18 -89
-40 -42 -22 -84 -40 -92 -40 -8 0 -22 -4 -32 -9 -36 -19 -88 -39 -119 -46 -18
-3 -35 -11 -38 -16 -4 -5 -24 -9 -45 -9 -21 0 -42 -5 -45 -10 -4 -6 -10 -8
-15 -5 -9 5 -179 -12 -211 -21 -12 -3 -18 5 -23 34 -10 63 -27 71 -226 101
-169 26 -502 34 -688 18 -62 -6 -111 -5 -145 2 -29 7 -77 17 -107 23 -97 20
-155 81 -190 198 -23 78 -25 124 -6 201 44 189 171 271 471 306 121 14 166 14
330 4 270 -17 493 -59 913 -172 134 -36 123 -38 213 27 175 126 337 314 428
497 13 26 27 47 30 46 3 0 25 -24 48 -53z m-2056 -26 c94 -18 183 -78 209
-141 19 -46 8 -59 -50 -59 -68 0 -231 -25 -310 -49 -36 -10 -97 -35 -136 -55
-119 -62 -224 -59 -279 5 -57 68 -15 172 95 236 103 61 325 90 471 63z m-1053
-730 c33 -18 106 -50 115 -50 5 0 23 -6 40 -14 49 -22 241 -65 359 -81 47 -6
48 -7 77 -68 52 -107 133 -175 239 -202 78 -20 185 -34 257 -35 l60 -1 -30
-24 c-38 -32 -161 -95 -184 -95 -9 0 -21 -4 -26 -9 -15 -13 -84 -21 -245 -28
-137 -5 -277 6 -340 27 -14 4 -45 14 -70 21 -95 27 -205 122 -248 213 -43 88
-52 129 -52 233 0 121 6 136 48 113z"/>
<path d="M3340 3925 c-35 -29 -68 -62 -73 -73 -23 -51 29 -105 76 -81 25 13
126 95 145 118 17 21 15 55 -6 74 -33 30 -72 20 -142 -38z"/>
<path d="M2624 3917 c-41 -22 -46 -68 -11 -98 112 -95 168 -117 200 -81 36 39
18 71 -76 141 -59 44 -86 53 -113 38z"/>
<path d="M3550 3742 c-50 -25 -86 -101 -71 -152 32 -106 173 -140 246 -58 36
41 44 108 18 157 -34 65 -122 89 -193 53z"/>
<path d="M2493 3639 c-113 -72 -86 -220 44 -250 48 -10 101 7 140 46 29 29 33
40 33 85 0 59 -24 101 -70 125 -41 21 -109 19 -147 -6z"/>
<path d="M2375 1039 c-16 -5 -43 -7 -58 -4 -15 2 -47 -2 -70 -11 -23 -8 -61
-20 -85 -26 -55 -13 -81 -47 -62 -83 7 -14 21 -27 32 -31 24 -7 23 -16 -6 -43
-36 -33 -39 -59 -11 -87 19 -19 30 -22 54 -18 35 7 39 -5 16 -46 -20 -35 -18
-74 3 -93 28 -25 48 -21 87 19 20 20 42 33 50 30 8 -3 28 -1 45 4 19 5 42 5
61 -2 22 -7 37 -7 55 1 34 15 33 69 -1 101 -33 31 -32 37 10 54 60 25 57 106
-4 106 -41 0 -56 22 -31 45 25 23 25 50 0 75 -22 22 -39 23 -85 9z"/>
</g>
</svg>
